<svg width="138" height="26" viewBox="0 0 138 26" fill="white" xmlns="http://www.w3.org/2000/svg">
<path fill-rule="evenodd" clip-rule="evenodd" d="M12.2993 8.37108L10.1975 10.5797L5.47501 15.5424L2.491 18.6781L0 16.0605L2.98401 12.9247L0 9.78898L2.491 7.17131L5.47501 10.3071L7.57679 8.0984L12.2993 3.13575L15.2833 0L17.7743 2.61767L14.7903 5.75341L18.2933 9.40724L15.7763 12.0249L12.2993 8.37108ZM9.31616 0.00371239L6.82084 2.62588L8.9492 4.86243L11.4445 2.24026L9.31616 0.00371239ZM62.9497 12.0795C62.9497 9.02557 60.7181 7.11686 57.3709 7.11686H50.7801V21.2686H54.1274V17.1785V14.0155V10.2253H57.319C58.6164 10.2253 59.6024 10.9616 59.6024 12.1068C59.6024 13.2793 58.5904 14.0155 57.319 14.0155H55.3469V17.1785H56.9297L59.8359 21.2686H63.8578L60.4068 16.4968C61.9896 15.6243 62.9497 14.07 62.9497 12.0795ZM13.1515 23.6134L15.6468 20.9913L17.7752 23.2278L15.2799 25.85L13.1515 23.6134ZM69.0473 21.2686H79.2189V18.2147H72.3946V16.5241H72.3687V15.7607H78.3627V12.7613H72.3687V11.8341H72.3946V10.1708H79.2189V7.11686H69.0473V21.2686ZM22.1077 7.17122L21.3552 7.96198L16.6326 12.9246L12.2993 17.4783L8.82232 13.8245L6.33132 16.4421L9.80834 20.0959L6.82433 23.2317L9.31533 25.8494L10.0678 25.0859L14.7903 20.0959L19.1236 15.5423L22.1077 18.678L24.5987 16.0604L21.6406 12.9246L24.5987 9.78889L22.1077 7.17122ZM103.921 18.1601H110.538V21.2686H102.235V21.2412H100.574V7.11671H103.921V18.1601ZM119.438 7.11671H116.091V21.2412H119.438V7.11671ZM131.063 12.4612L132.931 12.9248C135.396 13.4974 137.005 14.5336 136.979 16.9604C136.979 19.7689 134.773 21.5413 131.4 21.5413C128.364 21.5413 125.64 20.0416 125.328 16.5514H128.676C128.883 17.8057 129.921 18.5419 131.504 18.5419C132.75 18.5419 133.398 18.0511 133.398 17.2876C133.398 16.824 133.113 16.3059 131.971 16.0878L129.766 15.5697C127.119 14.9698 125.873 13.661 125.873 11.4251C125.873 8.61655 128.053 6.81691 131.219 6.81691C133.398 6.81691 136.642 7.71673 137.005 11.5069H133.632C133.45 10.4435 132.827 9.70725 131.452 9.70725C130.31 9.70725 129.532 10.1981 129.532 11.1251C129.532 11.8886 130.051 12.2431 131.063 12.4612ZM85.0573 21.2686H88.3786L95.0212 21.2686V18.1601H88.3843L88.4045 7.11686H85.0573V21.2686ZM32.928 10.2525H34.6924H37.5985V21.2687H40.9199V10.2525H44.5526H45.5906V7.11671H32.928V10.2525Z" />
</svg>
